<?xml version="1.0" standalone="no"?>
<!DOCTYPE svg PUBLIC "-//W3C//DTD SVG 20010904//EN"
 "http://www.w3.org/TR/2001/REC-SVG-20010904/DTD/svg10.dtd">
<svg version="1.0" xmlns="http://www.w3.org/2000/svg"
 width="896.000000pt" height="1195.000000pt" viewBox="0 0 896.000000 1195.000000"
 preserveAspectRatio="xMidYMid meet">

<g transform="translate(0.000000,1195.000000) scale(0.100000,-0.100000)"
fill="#000000" stroke="none">
<path d="M4923 8463 c-74 -70 -164 -292 -188 -461 -20 -151 -177 -452 -235
-452 -33 0 -42 42 -50 232 -7 143 -12 186 -29 222 -22 51 -56 67 -95 46 -30
-15 -80 -100 -102 -172 -17 -57 -34 -76 -34 -39 0 36 -22 78 -46 90 -62 28
-88 -22 -185 -363 -31 -106 -95 -289 -119 -337 -45 -90 -91 -158 -111 -164
-63 -20 -101 132 -98 399 1 145 -5 171 -39 150 -14 -9 -18 -33 -23 -140 -6
-132 -19 -203 -64 -333 -52 -154 -135 -286 -174 -279 -9 2 -26 22 -39 45 -27
49 -42 160 -42 316 l0 107 66 48 c81 57 94 69 94 88 0 30 -31 25 -92 -15 l-63
-41 -7 47 c-3 27 -7 150 -7 274 -1 237 -5 258 -45 243 -16 -6 -17 -31 -10
-313 l6 -306 -52 -40 c-77 -58 -82 -63 -70 -86 15 -26 29 -24 73 12 21 17 40
30 42 28 2 -2 8 -71 14 -154 5 -82 17 -173 26 -202 32 -106 107 -144 174 -87
36 30 129 209 156 302 10 34 22 62 26 62 4 0 10 -17 14 -37 10 -57 45 -132 69
-148 104 -74 230 131 356 580 43 152 84 268 97 272 26 9 42 -168 30 -343 -11
-158 -7 -184 28 -184 31 0 32 7 39 185 7 175 33 297 87 411 58 124 78 92 90
-142 9 -194 19 -245 55 -281 30 -30 74 -26 112 10 36 33 106 144 137 217 37
85 41 88 54 47 18 -54 57 -87 102 -87 32 0 46 7 77 39 47 48 107 157 128 230
9 31 18 58 20 60 2 2 13 -7 24 -21 26 -33 80 -44 119 -24 51 27 112 108 169
226 55 115 72 185 43 185 -16 0 -12 6 -86 -148 -87 -183 -166 -250 -212 -180
-14 21 -19 58 -23 195 l-6 168 -34 35 c-45 46 -103 49 -147 8z m106 -51 c15
-28 17 -289 2 -357 -7 -33 -32 -100 -56 -150 -99 -206 -182 -199 -179 15 3
172 68 382 149 479 30 35 69 41 84 13z"/>
<path d="M8089 8145 c-36 -20 -73 -71 -121 -168 -51 -104 -98 -168 -150 -206
-55 -40 -75 -40 -83 2 -18 79 -63 119 -108 96 -31 -17 -37 -28 -37 -79 0 -55
18 -84 71 -110 43 -23 42 -12 23 -165 -14 -108 -87 -287 -137 -334 -33 -30
-53 -23 -75 26 -14 31 -17 71 -18 208 -1 232 -1 232 -24 255 -32 32 -52 12
-109 -105 -47 -98 -104 -185 -122 -185 -4 0 -19 21 -34 46 -53 90 -170 97
-216 13 -4 -9 -13 -47 -19 -85 -6 -37 -15 -73 -19 -79 -23 -28 -45 -156 -46
-260 -1 -107 -2 -112 -40 -188 -48 -96 -86 -143 -108 -134 -24 9 -35 65 -45
232 -6 94 -16 165 -25 188 -28 65 -92 70 -135 10 -25 -36 -68 -130 -77 -172
-7 -33 -25 -33 -25 -1 0 25 -47 80 -69 80 -51 0 -87 -64 -131 -235 -78 -305
-133 -460 -182 -518 l-28 -32 -19 22 c-25 30 -41 127 -41 254 0 135 -10 169
-58 203 -21 14 -49 26 -63 26 -85 0 -183 -156 -219 -350 -19 -99 -82 -282
-160 -461 -70 -162 -77 -176 -84 -168 -11 11 -38 273 -43 416 -6 166 -12 190
-46 177 -22 -8 -29 -61 -21 -162 7 -89 0 -141 -32 -252 -38 -131 -111 -288
-157 -337 -23 -25 -59 -30 -75 -10 -30 36 -43 132 -40 297 l3 165 -23 3 c-18
3 -26 -4 -38 -33 -37 -90 -102 -153 -143 -140 -15 4 -21 20 -28 67 -8 63 -26
87 -57 75 -21 -8 -22 -106 -1 -148 13 -25 14 -45 6 -127 -18 -174 -58 -324
-118 -449 -39 -79 -62 -106 -90 -101 -40 7 -83 155 -83 289 0 105 -8 139 -35
149 -13 5 -26 14 -30 19 -11 19 -85 13 -115 -9 -16 -11 -45 -42 -64 -69 -45
-60 -106 -241 -106 -311 0 -108 -37 -223 -138 -425 -35 -71 -66 -132 -68 -134
-1 -2 -17 7 -34 19 -24 17 -41 21 -78 18 -26 -3 -55 -8 -66 -13 -16 -7 -18 -5
-11 26 20 97 99 357 121 400 20 40 22 53 14 70 -19 35 -42 17 -85 -68 -59
-117 -98 -153 -167 -155 -42 -1 -58 24 -58 88 0 69 -31 104 -60 69 -9 -11 -11
-42 -6 -118 5 -73 3 -133 -9 -209 -28 -192 -114 -466 -167 -533 -68 -86 -112
50 -112 350 -1 173 -2 180 -21 180 -16 0 -21 -8 -23 -43 -3 -37 -6 -42 -20
-36 -39 17 -107 15 -139 -5 -155 -97 -231 -564 -114 -701 88 -102 191 8 261
279 l12 44 24 -59 c24 -61 63 -104 92 -104 35 0 78 38 109 96 59 113 141 417
160 595 l5 55 52 -4 c43 -3 57 0 90 23 21 14 40 24 42 22 10 -10 -81 -326
-107 -376 -32 -60 -37 -102 -14 -121 23 -19 61 21 80 86 20 69 60 104 119 104
29 0 48 -6 59 -18 16 -17 12 -28 -52 -174 -89 -200 -146 -377 -172 -531 -39
-226 -13 -368 74 -411 37 -17 40 -17 83 -1 184 70 280 613 179 1010 l-24 96
87 179 c82 170 102 201 102 164 0 -25 65 -84 93 -84 65 0 132 91 183 248 l27
84 19 -38 c44 -91 105 -111 160 -52 71 76 145 278 173 473 9 66 19 135 21 153
4 28 8 32 37 32 35 0 74 22 104 59 l20 24 6 -119 c6 -133 27 -211 65 -249 27
-28 72 -32 109 -12 57 32 142 185 187 337 13 47 27 78 30 70 3 -8 12 -69 22
-135 9 -66 18 -123 21 -127 2 -4 -21 -72 -51 -150 -131 -344 -184 -621 -151
-793 26 -139 85 -199 171 -176 108 29 164 185 164 451 0 112 -6 171 -40 425
-6 39 -15 106 -21 150 l-10 79 52 121 c28 66 66 154 84 195 18 41 40 96 50
123 10 26 21 47 24 47 4 0 12 -21 19 -46 24 -88 103 -131 158 -86 39 32 87
113 120 205 15 41 19 46 27 30 36 -68 98 -84 143 -36 44 47 111 216 164 413
50 184 63 227 81 275 11 30 24 55 29 55 30 0 50 -138 53 -350 l2 -155 25 0 25
0 6 136 c10 206 35 338 85 445 55 118 81 80 90 -133 6 -145 21 -216 55 -251
27 -30 70 -28 108 4 30 25 111 172 111 201 0 7 17 -4 38 -27 33 -34 45 -40 79
-40 51 0 80 23 116 89 55 100 78 187 84 316 6 117 7 121 37 155 49 55 95 125
126 193 l29 62 -1 -175 c-2 -200 7 -247 57 -297 78 -78 157 -11 231 195 35 97
64 234 64 306 0 39 2 43 37 55 20 7 55 31 78 52 23 22 44 39 46 39 2 0 4 -57
4 -128 0 -143 15 -191 66 -217 47 -25 69 -18 119 33 46 48 95 151 114 240 4
17 11 32 14 32 4 0 15 -19 25 -40 20 -43 59 -70 102 -70 43 0 121 82 170 180
53 106 99 234 92 255 -15 36 -37 12 -72 -79 -20 -51 -56 -129 -81 -172 -71
-126 -117 -153 -154 -92 -29 49 -41 124 -43 271 -2 125 -3 132 -22 133 -11 0
-34 8 -52 17 -39 20 -69 21 -104 2z m98 -82 c25 -60 13 -245 -22 -348 -70
-206 -138 -277 -180 -188 -27 57 -16 271 19 376 46 137 88 197 137 197 25 0
33 -6 46 -37z m-513 -277 c18 -38 20 -56 8 -56 -13 0 -40 32 -42 50 -7 50 11
53 34 6z m-574 -366 c20 -20 40 -61 40 -81 0 -10 -65 -39 -88 -39 -49 0 -82
89 -46 124 22 22 70 20 94 -4z m-111 -156 c32 -16 94 -15 149 1 21 7 22 5 22
-44 0 -115 -56 -293 -109 -348 -64 -67 -123 25 -124 192 -1 66 19 215 28 215
1 0 17 -7 34 -16z m-1127 -655 c17 -120 12 -250 -12 -324 -51 -161 -118 -248
-160 -210 -63 57 -52 327 19 489 61 138 138 160 153 45z m-1574 -1001 c7 -7
12 -35 13 -62 0 -28 3 -69 8 -91 8 -43 -16 -200 -42 -271 -33 -90 -100 -194
-125 -194 -57 1 -90 198 -59 347 20 92 85 232 122 261 31 24 65 28 83 10z
m1082 -264 c41 -275 37 -496 -11 -626 -44 -122 -126 -141 -172 -41 -19 42 -22
65 -21 183 1 195 37 360 135 610 l33 85 7 -36 c5 -20 17 -99 29 -175z m-2381
-623 c13 -8 13 -17 1 -67 -13 -55 -13 -57 10 -76 21 -17 22 -23 17 -91 -12
-138 -98 -368 -150 -401 -48 -31 -86 55 -86 201 -1 121 18 218 59 310 48 106
104 152 149 124z m861 -309 c15 -107 12 -316 -5 -418 -32 -183 -78 -298 -140
-353 -43 -37 -70 -37 -96 -1 -83 112 -10 505 159 860 l45 95 13 -55 c7 -30 18
-88 24 -128z"/>
<path d="M3576 7997 c-26 -19 -18 -61 13 -65 42 -6 62 46 27 70 -15 11 -20 10
-40 -5z"/>
<path d="M2823 7158 c-6 -7 -13 -60 -16 -118 -11 -220 -114 -572 -213 -727
-53 -84 -90 -91 -123 -24 -36 73 -59 217 -60 370 -1 91 -7 107 -40 96 -20 -6
-21 -13 -21 -120 0 -170 -36 -334 -105 -480 -59 -123 -94 -142 -130 -70 -17
34 -20 60 -20 185 0 80 3 159 7 176 5 21 2 38 -7 50 -20 28 -43 9 -67 -53 -26
-70 -69 -115 -105 -111 -26 3 -29 8 -40 73 -14 73 -31 102 -57 92 -29 -11 -39
-57 -25 -112 6 -27 19 -60 27 -73 12 -18 13 -41 7 -115 -10 -130 -40 -293 -71
-379 -28 -77 -91 -198 -103 -198 -17 0 -33 59 -52 189 -30 203 -45 261 -76
293 -40 41 -91 39 -129 -5 -16 -19 -34 -42 -41 -53 -35 -56 2 372 47 546 27
105 45 160 68 203 39 72 62 60 62 -33 0 -52 19 -71 48 -48 19 16 10 129 -13
164 -38 59 -99 36 -146 -56 -91 -178 -139 -502 -139 -941 0 -157 2 -188 15
-193 33 -12 41 4 52 107 15 138 58 258 99 274 9 3 24 -3 35 -14 20 -20 33 -78
64 -288 17 -114 39 -180 69 -204 47 -39 122 50 181 214 45 128 61 202 75 350
7 66 14 126 16 133 2 7 19 12 39 12 25 0 44 8 61 25 14 14 26 25 28 25 2 0 6
-44 9 -97 3 -54 13 -121 22 -150 29 -95 102 -128 161 -72 35 33 92 149 128
261 18 56 35 97 38 92 3 -5 11 -27 17 -50 6 -22 24 -60 41 -82 27 -38 34 -42
74 -42 34 0 49 6 71 28 64 63 139 215 188 382 38 130 87 354 87 399 0 28 4 41
14 41 27 0 145 -120 172 -176 23 -48 26 -63 22 -123 -8 -113 -64 -178 -129
-151 -16 7 -32 24 -38 41 -11 32 -32 37 -51 14 -28 -34 24 -108 85 -119 75
-14 164 58 186 151 18 80 11 142 -26 219 -30 63 -48 85 -121 146 -47 41 -91
87 -99 106 -14 33 -35 41 -52 20z"/>
<path d="M2321 7086 c-8 -10 -11 -26 -7 -42 5 -20 12 -25 33 -22 14 2 31 11
37 21 23 36 -36 76 -63 43z"/>
<path d="M5226 6714 c-9 -8 -16 -22 -16 -29 0 -13 26 -45 36 -45 19 0 44 24
44 43 0 43 -35 60 -64 31z"/>
<path d="M960 6685 c-10 -12 -11 -50 -6 -161 7 -154 3 -193 -41 -371 -39 -162
-106 -323 -158 -379 -29 -31 -30 -37 -10 -58 23 -22 41 -10 79 53 59 99 119
250 147 374 6 32 15 55 18 51 3 -3 15 -60 27 -127 12 -67 29 -158 38 -202 59
-297 73 -519 41 -632 -26 -92 -108 -163 -187 -163 -63 0 -122 42 -137 96 -4
16 -15 31 -25 32 -78 15 -15 -138 71 -174 86 -36 209 -2 276 76 61 72 72 120
71 315 -1 174 -3 183 -74 560 -46 244 -70 440 -70 572 0 121 -2 133 -19 143
-25 13 -26 13 -41 -5z"/>
<path d="M2708 5389 c-47 -24 -108 -104 -148 -193 -107 -236 -145 -758 -90
-1256 12 -103 12 -100 2 -100 -11 0 -75 130 -123 252 -65 162 -116 320 -159
488 -58 227 -71 264 -96 268 -11 2 -26 -3 -33 -11 -16 -20 -38 -257 -51 -533
-12 -268 -16 -330 -36 -484 -37 -281 -111 -481 -215 -574 -52 -47 -84 -59
-138 -51 -122 18 -216 223 -190 415 30 217 152 300 194 133 9 -36 17 -48 31
-48 45 0 21 118 -33 165 -106 93 -230 -45 -249 -276 -18 -237 109 -448 271
-448 218 0 374 350 405 909 31 565 38 655 48 655 4 0 15 -37 26 -82 67 -303
253 -781 340 -872 30 -32 38 -36 55 -26 27 14 27 48 4 252 -25 213 -24 693 0
860 47 314 148 518 257 518 22 0 43 -7 53 -17 39 -44 47 -196 13 -248 -29 -44
-14 -77 24 -53 32 20 55 94 54 173 0 90 -17 136 -60 175 -42 36 -99 40 -156 9z"/>
</g>
</svg>
