<svg width="630" height="520" viewBox="0 0 630 520" fill="none" xmlns="http://www.w3.org/2000/svg">
  <defs>
    <filter id="neon" x="-25%" y="-25%" width="150%" height="150%">
      <feGaussianBlur in="SourceGraphic" stdDeviation="4" result="blur1"/>
      <feGaussianBlur in="SourceGraphic" stdDeviation="1.5" result="blur2"/>
      <feMerge>
        <feMergeNode in="blur1"/>
        <feMergeNode in="blur2"/>
        <feMergeNode in="SourceGraphic"/>
      </feMerge>
    </filter>
  </defs>
  
  <rect width="630" height="520" id="repeat" fill="#fff" opacity="0" display="none">
    <set attributeName="display" to="inline" begin="animp0.end+0.5s" end="repeat.click;indefinite"/>
  </rect>
  <g filter="url(#neon)" stroke="#58c4dc" stroke-linecap="round" stroke-linejoin="round">
    <path id="p1" stroke-width="4"
      stroke-dasharray="400 400" stroke-dashoffset="400"
      d="M3.94958 374.239C17.7829 348.906 43.3496 288.239 34.9496 248.239C47.2021 305.86 62.3459 432.225 42.4496 456.239C27.9413 473.75 10.7829 456.573 3.94958 445.739">
      <animate id="animp1" attributeName="stroke-dashoffset" from="400" to="0"
        begin="0.4s;repeat.click+0.2s" dur="0.36s" keyTimes="0;1" calcMode="spline" keySplines=".42,0,.58,1;"/>
      <set attributeName="stroke-dashoffset" to="0" begin="animp1.end" end="repeat.click;indefinite"/>
      <set attributeName="stroke-dashoffset" to="400" begin="repeat.click" end="animp1.begin;indefinite"/>
    </path>
    <path id="p2" stroke-width="4"
      stroke-dasharray="432 432" stroke-dashoffset="432"
      d="M111.95 241.739C114.95 234.739 113.65 219.739 106.45 219.739C105.283 219.739 102.95 219.939 102.95 220.739C82.1496 238.739 77.2829 330.573 77.4496 374.239C81.3177 348.394 92.4388 305.341 106.45 336.239C111.782 353.554 113.484 362.891 115.45 379.239C115.685 386.379 119.962 390.217 124.95 390.001C135.086 389.561 141.823 366.678 143.95 349.739C147.023 335.6 152.676 305.874 152.597 291.919">
      <animate id="animp2" attributeName="stroke-dashoffset" from="432" to="0"
        begin="animp1.end" dur="0.44s" keyTimes="0;1" calcMode="spline" keySplines=".42,0,.58,1;"/>
      <set attributeName="stroke-dashoffset" to="0" begin="animp2.end" end="repeat.click;indefinite"/>
      <set attributeName="stroke-dashoffset" to="432" begin="repeat.click" end="animp2.begin;indefinite"/>
    </path>
    <path id="p3" stroke-width="4"
      stroke-dasharray="48 48" stroke-dashoffset="48"
      d="M152.597 291.919C152.591 290.741 152.543 289.674 152.45 288.739C151.25 276.739 146.95 275.073 144.95 275.739C144.372 278.77 145.32 285.7 152.597 291.919Z">
      <animate id="animp3" attributeName="stroke-dashoffset" from="48" to="0"
        begin="animp2.end" dur="0.095s" keyTimes="0;1" calcMode="spline" keySplines=".42,0,.58,1;"/>
      <set attributeName="stroke-dashoffset" to="0" begin="animp3.end" end="repeat.click;indefinite"/>
      <set attributeName="stroke-dashoffset" to="48" begin="repeat.click" end="animp3.begin;indefinite"/>
    </path>
    <path id="p4" stroke-width="4"
      stroke-dasharray="537 537" stroke-dashoffset="537"
      d="M 152.597,291.919 C 153.724,292.882 155.002,293.828 156.45,294.739 C 167.25,301.539 174.283,284.906 176.45,275.739 C 175.45,292.906 178.45,332.239 184.45,334.239 C 190.352,338.115 202.046,336.38 210.45,301.239 C 215.511,288.839 217.892,256.406 218.45,241.739 C 219.45,265.906 224.65,312.539 237.45,305.739 C 253.45,297.239 284.45,228.739 281.95,183.739 C 283.599,184.698 299.349,200.397 306.95,210.739 C 312.616,218.906 321.05,239.239 309.45,255.239 C 297.85,271.239 287.616,260.239 283.95,252.739">
      <animate id="animp4" attributeName="stroke-dashoffset" from="537" to="0"
        begin="animp3.end" dur="0.6s" keyTimes="0;1" calcMode="spline" keySplines=".42,0,.58,1;"/>
      <set attributeName="stroke-dashoffset" to="0" begin="animp4.end" end="repeat.click;indefinite"/>
      <set attributeName="stroke-dashoffset" to="537" begin="repeat.click" end="animp4.begin;indefinite"/>
    </path>
    <path id="p5" stroke-width="4"
      stroke-dasharray="30 30" stroke-dashoffset="30"
      d="M216.309 219.733C215.651 220.556 215.404 221.873 215.733 223.19C216.145 224.836 216.721 225.248 218.45 225.001C219.602 224.836 221.001 224.095 221.495 223.272C223.388 220.309 218.532 217.017 216.309 219.733Z">
      <animate id="animp5" attributeName="stroke-dashoffset" from="30" to="0"
        begin="animp4.end" dur="0.065s" keyTimes="0;1" calcMode="spline" keySplines=".42,0,.58,1;"/>
      <set attributeName="stroke-dashoffset" to="0" begin="animp5.end" end="repeat.click;indefinite"/>
      <set attributeName="stroke-dashoffset" to="30" begin="repeat.click" end="animp5.begin;indefinite"/>
    </path>
    <path id="p6" stroke-width="4"
      stroke-dasharray="61 61" stroke-dashoffset="61"
      d="M313.45 171.739L353.95 140.739">
      <animate id="animp6" attributeName="stroke-dashoffset" from="61" to="0"
        begin="animp5.end" dur="0.095s" keyTimes="0;1" calcMode="spline" keySplines=".42,0,.58,1;"/>
      <set attributeName="stroke-dashoffset" to="0" begin="animp6.end" end="repeat.click;indefinite"/>
      <set attributeName="stroke-dashoffset" to="61" begin="repeat.click" end="animp6.begin;indefinite"/>
    </path>
    <path id="p7" stroke-width="4"
      stroke-dasharray="530 530" stroke-dashoffset="530"
      d="M329.45 75.2392C327.783 126.406 328.95 228.339 346.95 226.739C364.95 225.139 378.116 158.739 382.45 125.739C381.45 166.073 385.95 234.639 411.95 186.239C416.401 176.374 423.573 154.155 439.95 101.739C443.783 90.7392 452.45 72.0392 456.45 85.2392C458.197 91.007 458.736 101.631 458.649 113.239">
      <animate id="animp7" attributeName="stroke-dashoffset" from="530" to="0"
        begin="animp6.end" dur="0.52s" keyTimes="0;1" calcMode="spline" keySplines=".42,0,.58,1;"/>
      <set attributeName="stroke-dashoffset" to="0" begin="animp7.end" end="repeat.click;indefinite"/>
      <set attributeName="stroke-dashoffset" to="530" begin="repeat.click" end="animp7.begin;indefinite"/>
    </path>
    <path id="p8" stroke-width="4"
      stroke-dasharray="30 30" stroke-dashoffset="30"
      d="M380.31 105.733C379.651 106.556 379.404 107.873 379.733 109.19C380.145 110.836 380.721 111.248 382.45 111.001C383.602 110.836 385.001 110.095 385.495 109.272C387.388 106.309 382.532 103.017 380.31 105.733Z">
      <animate id="animp8" attributeName="stroke-dashoffset" from="30" to="0"
        begin="animp7.end" dur="0.065s" keyTimes="0;1" calcMode="spline" keySplines=".42,0,.58,1;"/>
      <set attributeName="stroke-dashoffset" to="0" begin="animp8.end" end="repeat.click;indefinite"/>
      <set attributeName="stroke-dashoffset" to="30" begin="repeat.click" end="animp8.begin;indefinite"/>
    </path>
    <path id="p9" stroke-width="4"
      stroke-dasharray="51 51" stroke-dashoffset="51"
      d="M456.45 154.739C457.388 144.792 458.538 128.198 458.649 113.239">
      <animate id="animp9" attributeName="stroke-dashoffset" from="51" to="0"
        begin="animp8.end" dur="0.12s" keyTimes="0;1" calcMode="spline" keySplines=".42,0,.58,1;"/>
      <set attributeName="stroke-dashoffset" to="0" begin="animp9.end" end="repeat.click;indefinite"/>
      <set attributeName="stroke-dashoffset" to="51" begin="repeat.click" end="animp9.begin;indefinite"/>
    </path>
    <path id="p10" stroke-width="4"
      stroke-dasharray="346 346" stroke-dashoffset="346"
      d="M 458.649,113.239 C 464.416,91.9059 476.45,66.7392 485.95,66.7392 C 495.45,66.7392 490.2,85.2392 490.2,98.7392 C 490.2,112.239 489.95,122.739 492.45,131.501 C 494.95,140.262 500.25,143.339 513.45,125.739 C 526.65,108.139 538.95,64.4059 543.45,44.7392 C 547.95,23.9059 561.35,-11.6608 578.95,12.7392 C 578.95,21.2005 578.388,32.7012 576.9,44.7392">
      <animate id="animp10" attributeName="stroke-dashoffset" from="346" to="0"
        begin="animp9.end" dur="0.44s" keyTimes="0;1" calcMode="spline" keySplines=".42,0,.58,1;"/>
      <set attributeName="stroke-dashoffset" to="0" begin="animp10.end" end="repeat.click;indefinite"/>
      <set attributeName="stroke-dashoffset" to="346" begin="repeat.click" end="animp10.begin;indefinite"/>
    </path>
    <path id="p11" stroke-width="4"
      stroke-dasharray="148 148" stroke-dashoffset="148"
      d="M543.45 44.7392C537.616 69.0726 531.25 115.039 552.45 104.239C566.75 96.9539 573.816 69.6922 576.9 44.7392">
      <animate id="animp11" attributeName="stroke-dashoffset" from="148" to="0"
        begin="animp10.end" dur="0.175s" keyTimes="0;1" calcMode="spline" keySplines=".42,0,.58,1;"/>
      <set attributeName="stroke-dashoffset" to="0" begin="animp11.end" end="repeat.click;indefinite"/>
      <set attributeName="stroke-dashoffset" to="148" begin="repeat.click" end="animp11.begin;indefinite"/>
    </path>
    <path id="p12" stroke-width="4"
      stroke-dasharray="107 107" stroke-dashoffset="107"
      d="M576.9 44.7392C577.917 57.0726 583.05 79.3392 595.45 69.7392C607.85 60.1392 620.616 32.4059 625.45 19.7392">
      <animate id="animp12" attributeName="stroke-dashoffset" from="107" to="0"
        begin="animp11.end" dur="0.175s" keyTimes="0;1" calcMode="spline" keySplines=".42,0,.58,1;"/>
      <set attributeName="stroke-dashoffset" to="0" begin="animp12.end" end="repeat.click;indefinite"/>
      <set attributeName="stroke-dashoffset" to="107" begin="repeat.click" end="animp12.begin;indefinite"/>
    </path>
    <path id="p0" stroke-width="3.5"
      stroke-dasharray="806 806" stroke-dashoffset="806"
      d="M331.643 441.749C326.043 419.482 309.777 430.549 305.777 459.482C302.31 485.082 314.843 512.416 331.11 514.816C338.31 515.882 342.577 514.282 349.51 508.016C363.377 495.616 373.243 468.949 378.177 431.482C380.843 410.949 381.377 402.682 382.977 366.949C384.71 330.149 387.643 298.549 389.777 295.882C390.71 294.816 392.71 294.149 394.177 294.416C397.51 294.949 399.243 299.882 406.977 330.149C412.71 352.549 419.51 373.615 428.177 395.215C434.577 411.482 443.11 428.816 444.577 428.816C445.91 428.816 445.91 429.216 444.31 415.482C436.977 349.082 442.043 279.482 456.31 248.016C461.643 236.149 469.777 225.482 476.043 222.282C483.643 218.149 491.243 218.682 496.843 223.482C502.577 228.682 504.843 234.816 504.843 246.816C504.977 257.349 501.91 267.216 497.643 269.882">
      <animate id="animp0" attributeName="stroke-dashoffset" from="806" to="0"
        begin="animp12.end" dur="0.64s" keyTimes="0;1" calcMode="spline" keySplines=".42,0,.58,1;"/>
      <set attributeName="stroke-dashoffset" to="0" begin="animp0.end" end="repeat.click;indefinite"/>
      <set attributeName="stroke-dashoffset" to="806" begin="repeat.click" end="animp0.begin;indefinite"/>
    </path>
  </g>
</svg>
